PathFileType	4	(X/Y/Z)	G:\TennisProject\Miami_Dimitrov_Sinner_masked_Sports2D\Miami_Dimitrov_Sinner_masked_Sports2D_px_person01.trc
DataRate	CameraRate	NumFrames	NumMarkers	Units	OrigDataRate	OrigDataStartFrame	OrigNumFrames
25	25	12	22	m	25	0	499
Frame#	Time	Hip			RHip			RKnee			RAnkle			RBigToe			RSmallToe			RHeel			LHip			LKnee			LAnkle			LBigToe			LSmallToe			LHeel			Neck			Head			Nose			RShoulder			RElbow			RWrist			LShoulder			LElbow			LWrist		
		X1	Y1	Z1	X2	Y2	Z2	X3	Y3	Z3	X4	Y4	Z4	X5	Y5	Z5	X6	Y6	Z6	X7	Y7	Z7	X8	Y8	Z8	X9	Y9	Z9	X10	Y10	Z10	X11	Y11	Z11	X12	Y12	Z12	X13	Y13	Z13	X14	Y14	Z14	X15	Y15	Z15	X16	Y16	Z16	X17	Y17	Z17	X18	Y18	Z18	X19	Y19	Z19	X20	Y20	Z20	X21	Y21	Z21	X22	Y22	Z22
0	0.0	1064.7253098205442	758.7069380462133	0.0	1069.4982220390857	759.6613765086287	0.0	1099.0912376512808	812.1648721381706	0.0	1052.3154596162499	845.5761547863492	0.0	1060.9068046664524	870.3958776177552	0.0	1058.9977225375019	870.3959180866348	0.0	1039.905660200497	848.4399829456758	0.0	1057.0882687142928	758.7068216156385	0.0	1084.7720122057522	805.4826221846804	0.0	1070.4531758813237	846.5309694147962	0.0	1087.6361650604256	852.2586095504173	0.0	1080.9539751591587	852.2586503805538	0.0	1048.4972712255012	853.213133687423	0.0	1058.997921474905	697.612049448532	0.0	1044.6785882188979	660.3818177486232	0.0	1059.9526568693063	669.9280774529893	0.0	1059.952114522479	701.4304597596897	0.0	1066.6342027060855	748.2059204898151	0.0	1078.0896394748333	746.2962778078413	0.0	1054.2247178364828	691.8839086776502	0.0	1067.58927004716	651.7896647408542	0.0	1069.499029844	618.381872545849	0.0
1	0.04	1065.1334289708886	755.8681089871774	0.0	1071.6509406349912	755.7816004954038	0.0	1097.2916000967648	808.9738407116084	0.0	1053.230563318507	844.7780980920373	0.0	1060.6581626779289	868.6780788764546	0.0	1059.133815022367	867.763848812526	0.0	1041.0565667375013	846.4330980145054	0.0	1057.3097006321416	755.8222518531115	0.0	1080.435608928351	800.9792579555943	0.0	1071.5093762902727	843.3416728088358	0.0	1087.2725356436995	854.5971954010157	0.0	1083.2038068943307	851.979127632923	0.0	1060.2849885179767	849.1430127432975	0.0	1057.4384959338283	695.3074921275957	0.0	1040.9943260813038	662.9169286076492	0.0	1054.963938852442	670.9515737963941	0.0	1059.7351414349864	695.4020782203671	0.0	1068.5541044562597	672.2495846133256	0.0	1074.35104828119	697.2123238846484	0.0	1053.072400227464	695.6998804287475	0.0	1065.2056544243842	679.9512802394269	0.0	1071.266008364456	657.2910483799508	0.0
2	0.08	1067.4214815211283	753.5462333570955	0.0	1073.7690881430783	753.0411808276639	0.0	1095.727841711512	805.7399680290058	0.0	1054.856448478543	843.4115663019055	0.0	1060.2352826561464	867.3770930094543	0.0	1058.486489522912	865.9389888809803	0.0	1042.2733805398987	845.2441353647671	0.0	1059.481494465949	753.7695167388571	0.0	1078.136432517299	798.0464298514144	0.0	1072.5196851739895	842.4185195517028	0.0	1087.479112355612	856.3031481643486	0.0	1085.6216062338312	852.0817813643162	0.0	1066.1890880109252	848.8247579259939	0.0	1055.3316489291615	691.1624766559812	0.0	1036.002778339746	660.1487665589467	0.0	1049.4404595167343	667.9670886784056	0.0	1057.8621917530693	689.8667944698311	0.0	1065.3125587417203	659.9534015743618	0.0	1072.6038225229736	630.4583458254624	0.0	1051.005883237443	695.5507943657858	0.0	1062.3384206636483	686.2527925646839	0.0	1071.4887752731102	668.3997823143617	0.0
3	0.12	1070.0052057572816	748.1542471672635	0.0	1075.8232026237051	748.0454922595806	0.0	1094.4052897017707	800.7019392029481	0.0	1057.8695466194413	840.3715114612564	0.0	1061.2102474299163	865.1742020754178	0.0	1059.0079882897317	863.9070495474186	0.0	1045.7553658036895	843.7459254762615	0.0	1061.5456783055445	748.850614365573	0.0	1077.300978852629	794.0105324142866	0.0	1072.1604129256668	841.4010287107711	0.0	1087.108096902189	857.0323952369308	0.0	1086.1476497046178	852.3355828654618	0.0	1066.1245144111724	849.3493311009453	0.0	1051.8796599138793	684.331330244796	0.0	1029.306964402736	652.2081126284304	0.0	1044.1847226458874	660.3715280789729	0.0	1054.6211966804876	681.8248186630118	0.0	1058.0215299625293	677.0943277654598	0.0	1068.8488102493498	593.2288470186727	0.0	1046.482703469514	690.1139509533272	0.0	1059.1214087425105	660.4472202950319	0.0	1071.0421640664213	635.3787037393508	0.0
4	0.16	1071.2745238823493	736.6440728599189	0.0	1078.2104343072415	737.4517889397071	0.0	1092.3178022588904	792.5577261693865	0.0	1062.7298294187506	836.1582240941852	0.0	1065.7409904000983	861.1741463272032	0.0	1064.4513093375754	860.4370204095856	0.0	1053.327098043192	841.269540338142	0.0	1061.7645822721545	737.9633728228117	0.0	1075.5024793119283	786.4779528930903	0.0	1069.5795918021233	837.3642426807392	0.0	1084.3249171897164	856.6683372195901	0.0	1081.9716500078193	852.3843332617487	0.0	1063.7097342638453	846.1347807730932	0.0	1047.2109277099921	674.6398331966155	0.0	1021.9839067091359	643.6043248313663	0.0	1038.4721250815885	651.4291036352562	0.0	1052.0738967032926	671.8397362191735	0.0	1053.5455655809494	674.8724592450127	0.0	1059.9457821879143	615.2875382380992	0.0	1040.8285416704525	679.9539117231261	0.0	1052.7725169244036	632.4662376267828	0.0	1067.920605742711	604.1757040426508	0.0
5	0.2	1072.1853020649503	721.6284903229102	0.0	1081.0735673461602	723.331782753186	0.0	1088.5832693497337	782.1393247142106	0.0	1069.4379406182036	832.0577132725626	0.0	1074.3343113668848	855.0982279632537	0.0	1075.1032995051678	854.8592113049938	0.0	1063.486356483133	838.6022902132327	0.0	1061.7103407039797	724.4016433509576	0.0	1071.8956889921415	776.9963550476847	0.0	1066.849964100229	830.8696358181016	0.0	1080.8284197689177	853.2859834571457	0.0	1076.0433247300703	850.1899412658424	0.0	1062.5072900531509	839.4542598190943	0.0	1042.889951490053	663.3314180815681	0.0	1015.2885620336531	637.968699831808	0.0	1030.522029428983	644.7157670326689	0.0	1051.9365256905526	662.5905111051377	0.0	1056.9537754416665	659.5331732011415	0.0	1053.0238791874795	651.443181968932	0.0	1037.3691318886918	668.2306717910749	0.0	1041.938438935269	626.5508163421653	0.0	1054.7660562530536	611.4804159935562	0.0
6	0.24	1072.6883551357998	708.3693017021008	0.0	1082.6819178068097	709.915924615499	0.0	1085.25512055341	770.9019158229514	0.0	1077.3316998812415	826.7750865079743	0.0	1087.246657890019	845.7082571920689	0.0	1088.344012165137	846.2305345606843	0.0	1073.0939024902289	834.6116991637109	0.0	1061.651151453053	712.857226468161	0.0	1068.405157801213	768.3123009346135	0.0	1067.325294470228	823.9565053210059	0.0	1082.4702319333878	843.7784033005429	0.0	1076.673918394045	842.4051815790003	0.0	1064.4149895900673	832.5970294026015	0.0	1039.8894960054533	652.2553301735129	0.0	1009.6094894052678	632.2318319322701	0.0	1022.5246852104824	638.3286654587673	0.0	1052.7213633889623	651.2825058117742	0.0	1063.090086172386	639.3196095224456	0.0	1052.062982419511	649.1484039329594	0.0	1035.7401057264397	658.8279232961722	0.0	1035.3870539063887	626.4595664794356	0.0	1035.5812071845373	622.3742521984549	0.0
7	0.28	1070.5788225804235	699.9503469739742	0.0	1081.2092315770194	700.1221203805807	0.0	1085.7183032881603	760.4963606856287	0.0	1086.4253216958905	818.5934364705568	0.0	1104.0395853417824	832.1307486506112	0.0	1103.5593307673587	834.0807167123457	0.0	1082.217320644268	827.6118557271832	0.0	1059.7409406435581	704.5579240166273	0.0	1066.688440331226	761.7521857784291	0.0	1071.2703246512133	817.1319306729802	0.0	1089.9502739629845	829.4171035823792	0.0	1084.3112067392035	829.765543365843	0.0	1069.036646458731	826.7935296943086	0.0	1036.965717857422	641.3379934897148	0.0	1005.8103382189624	622.290001031057	0.0	1018.9537243382769	627.7624293699332	0.0	1051.7199258728103	636.1136260980342	0.0	1062.8052346897243	611.7882195107401	0.0	1050.8232631903109	609.3665428578138	0.0	1032.708037228267	652.1146778803163	0.0	1039.1697000890863	621.437173672738	0.0	1030.1754668654478	609.215893993602	0.0
8	0.32	1065.8606274818435	696.3086853876223	0.0	1077.5772229049774	695.5590618216834	0.0	1090.0092782923907	752.5732463230261	0.0	1097.977390955327	808.8310319775408	0.0	1121.092964165849	815.6643413888188	0.0	1120.2823673709916	819.6336650044097	0.0	1094.3384867610873	819.1447597805327	0.0	1056.2565984302232	700.1714983629879	0.0	1065.6942654121644	757.0002273666025	0.0	1075.618034824594	809.9116099875251	0.0	1096.384527278714	816.4430054420241	0.0	1090.4171218546865	818.0640025379031	0.0	1074.5693793703524	820.6511350759606	0.0	1033.166107903605	630.8964176913826	0.0	1005.5296273579395	611.5469391375822	0.0	1020.8232001368664	615.0397100420378	0.0	1049.227620537524	621.8092608761561	0.0	1057.2109542132762	587.4418226327492	0.0	1049.261799899985	564.02770704324	0.0	1028.0390777419154	647.1320532167781	0.0	1044.7885190181323	626.8859649265235	0.0	1045.502450728437	604.5775151111623	0.0
9	0.36	1061.6749200293882	694.6445393336292	0.0	1073.866632748713	693.6005213712059	0.0	1095.3224561696693	746.5256135234393	0.0	1111.7092645939479	799.4524219204652	0.0	1135.5062198052387	800.0574464140549	0.0	1135.9386337056	805.8375982955538	0.0	1110.0168620951004	810.978036989956	0.0	1053.092031088622	698.4707583066604	0.0	1063.7229154943223	752.6462420709107	0.0	1077.1687745365102	802.7450215159666	0.0	1097.0354238396444	808.5899788045447	0.0	1090.4621450791965	810.9413229674689	0.0	1078.0829602026595	813.3783922970092	0.0	1029.9467964919045	624.2349791270783	0.0	1007.8468264689849	603.8437807412387	0.0	1024.541429838592	606.8171291205207	0.0	1046.6745993603802	613.5612779320899	0.0	1053.6918763606207	576.2095535655106	0.0	1052.1819361589846	539.3225847452594	0.0	1024.2577925758005	644.0542711007067	0.0	1044.7891390317009	644.9101519282126	0.0	1063.2125828536189	631.7246411965599	0.0
10	0.4	1059.9403937070877	692.0206754284129	0.0	1071.5941522920543	690.0680829136494	0.0	1100.4309398002533	740.908993908369	0.0	1125.0868317562288	791.3943503108582	0.0	1148.3482875993984	790.32017698226	0.0	1149.1134787503115	796.4752607630926	0.0	1125.134098294159	803.4727730234027	0.0	1051.4612457004616	696.1427362626214	0.0	1061.1128979839632	748.375057226863	0.0	1074.2708210041048	796.8517483528598	0.0	1091.5113479106149	804.362569296716	0.0	1084.7744203674874	806.8035918405884	0.0	1076.3124194782802	806.751611797047	0.0	1027.5216912876776	622.4895494402947	0.0	1009.122188783627	598.8752193570716	0.0	1024.2979459257294	605.542020000019	0.0	1044.329308355172	611.9343350826081	0.0	1054.8068445154067	579.6015305508928	0.0	1058.226480948213	547.1267864775716	0.0	1021.4420227604073	643.1471831618919	0.0	1040.584304975451	658.1324803498107	0.0	1064.574063690835	656.3329889169628	0.0
11	0.44	1059.8119012972822	688.6366988847706	0.0	1071.9854954774128	686.397980130849	0.0	1106.343015578631	736.1510732502071	0.0	1135.9310725008327	785.2191096931317	0.0	1160.0932160211055	788.7464757556158	0.0	1160.2896962150778	793.2241319795374	0.0	1136.4556412933605	797.1707442063297	0.0	1051.9511329898783	694.2155296456652	0.0	1059.0919299060138	745.9380853665075	0.0	1067.5919314332086	793.426439839506	0.0	1080.6946840078158	802.0014949986602	0.0	1074.2067135928735	804.0271951071426	0.0	1069.1176619552505	803.4523243028534	0.0	1023.5577976720103	622.3593431364991	0.0	1007.7794534025365	597.6053593119401	0.0	1017.5580750723917	608.7429985770711	0.0	1042.6551184125597	613.8871652867224	0.0	1059.080968503582	593.8340309534263	0.0	1062.926213212794	583.0533795569482	0.0	1017.2482224246436	644.9676688888582	0.0	1033.904010855878	666.5174585597151	0.0	1051.5292065015487	657.0381911746425	0.0
